<?xml version="1.0" encoding="utf-8"?>
<!-- Generator: Adobe Illustrator 26.0.1, SVG Export Plug-In . SVG Version: 6.00 Build 0)  -->
<svg version="1.1" xmlns="http://www.w3.org/2000/svg" xmlns:xlink="http://www.w3.org/1999/xlink" x="0px" y="0px"
	 viewBox="0 0 182 70" style="enable-background:new 0 0 182 70;" xml:space="preserve">
<style type="text/css">
	.st0{fill:#00BE5F;}
	.st1{fill:#870AA0;}
	.st2{fill:#2819FF;}
	.st3{fill:#FF5F0A;}
	.st4{fill:#FFCD32;}
	.st5{fill:#23C3FF;}
	.st6{fill:#FA1996;}
	.st7{fill:#00F0AF;}
	.st8{fill:none;}
	.st9{fill:#FFFFFF;}
	.st10{clip-path:url(#SVGID_00000165232804855499151110000009663623155592214420_);}
	.st11{fill:none;stroke:#FFFFFF;stroke-width:39;stroke-miterlimit:10;}
</style>
<g id="Lager_1">
</g>
<g id="Exempel">
</g>
<g id="Titel">
	<path class="st2" d="M129.5,32.5c5.24,0,9.5,4.26,9.5,9.5h12c0-11.87-9.63-21.5-21.5-21.5l0,0c-11.87,0-21.5,9.63-21.5,21.5h12
		C120,36.76,124.26,32.5,129.5,32.5"/>
	<polyline class="st0" points="37.99,21 49,21 49,63 37.99,63 37.99,21.55 	"/>
	<polyline class="st2" points="158,46 171,46 171,63 158,63 158,46.22 	"/>
	<polyline class="st5" points="158,30 171,30 171,46 158,46 158,30.21 	"/>
	<polyline class="st0" points="158,22 171,22 171,30 158,30 158,22.1 	"/>
	<polyline class="st5" points="77,21 89,21 89,63 77,63 77,21.55 	"/>
	<polyline class="st0" points="138.99,42 151,42 151,63 138.99,63 138.99,42.27 	"/>
	<polyline class="st2" points="57,38 69,38 69,63 57,63 	"/>
	<polyline class="st5" points="57,21 69,21 69,38 57,38 	"/>
	<polyline class="st0" points="57,5 69,5 69,21 57,21 	"/>
	<circle class="st0" cx="164" cy="11" r="7"/>
	<g>
		<path class="st5" d="M99,20.53v12c5.01,0.26,9,4.41,9,9.47v0.27V63h12V42C120,30.29,110.64,20.79,99,20.53z"/>
		<path class="st0" d="M98.5,20.5C86.63,20.5,77,30.13,77,42h12c0-5.24,4.26-9.5,9.5-9.5c0.17,0,0.33,0.02,0.5,0.03v-12
			C98.83,20.52,98.67,20.5,98.5,20.5z"/>
	</g>
	<g>
		<path class="st8" d="M19.17,47.87C20.88,50.36,23.75,52,27,52V41.3L19.17,47.87z"/>
		<path class="st8" d="M27,52c5.24,0,9.5-4.26,9.5-9.5c0-2.65-1.1-5.05-2.86-6.78L27,41.3V52z"/>
		<path class="st8" d="M27,41.3l6.64-5.58C31.93,34.04,29.58,33,27,33V41.3z"/>
		<path class="st8" d="M27,33c-5.24,0-9.5,4.26-9.5,9.5c0,1.99,0.62,3.84,1.67,5.37L27,41.3V33z"/>
		<g>
			<path class="st5" d="M27,21v12c2.58,0,4.93,1.04,6.64,2.72l9.2-7.72C38.91,23.71,33.28,21,27,21z"/>
			<path class="st5" d="M42.84,28l-9.2,7.72c1.76,1.73,2.86,4.12,2.86,6.78c0,5.24-4.26,9.5-9.5,9.5c-3.25,0-6.12-1.64-7.83-4.13
				l-9.2,7.72C13.9,60.69,20.06,64,27,64c11.87,0,21.5-9.63,21.5-21.5C48.5,36.91,46.35,31.83,42.84,28z"/>
		</g>
		<path class="st2" d="M17.5,42.5c0-5.24,4.26-9.5,9.5-9.5V21C15.13,21,5.5,30.63,5.5,42.5c0,4.93,1.68,9.46,4.47,13.09l9.2-7.72
			C18.12,46.34,17.5,44.49,17.5,42.5z"/>
	</g>
</g>
<g id="Lager_4">
</g>
<g id="Layer_5">
</g>
<g id="Layer_6">
</g>
</svg>
