<?xml version="1.0" encoding="utf-8"?>
<!-- Generator: Adobe Illustrator 26.0.1, SVG Export Plug-In . SVG Version: 6.00 Build 0)  -->
<svg version="1.1" xmlns="http://www.w3.org/2000/svg" xmlns:xlink="http://www.w3.org/1999/xlink" x="0px" y="0px"
	 viewBox="0 0 20 21" style="enable-background:new 0 0 20 21;" xml:space="preserve">
<style type="text/css">
	.st0{fill:#00BE5F;}
	.st1{fill:#870AA0;}
	.st2{fill:#2819FF;}
	.st3{fill:#FF5F0A;}
	.st4{fill:#FFCD32;}
	.st5{fill:#23C3FF;}
	.st6{fill:#FA1996;}
	.st7{fill:#00F0AF;}
	.st8{fill:none;}
	.st9{fill:#FFFFFF;}
	.st10{clip-path:url(#SVGID_00000003805032764022279070000002319883175627511732_);}
	.st11{fill:none;stroke:#FFFFFF;stroke-width:39;stroke-miterlimit:10;}
	.st12{clip-path:url(#SVGID_00000069370277260360601890000007405251986164903071_);fill:#00BE5F;}
	.st13{clip-path:url(#SVGID_00000069370277260360601890000007405251986164903071_);fill:#23C3FF;}
	.st14{clip-path:url(#SVGID_00000069370277260360601890000007405251986164903071_);}
</style>
<g id="Lager_1">
</g>
<g id="Exempel">
</g>
<g id="Guide_lines">
</g>
<g id="Titel">
</g>
<g id="Testimonial_1_background">
</g>
<g id="Testimonial_2_background">
</g>
<g id="Testimonial_3_Background">
</g>
<g id="Statistic">
</g>
<g id="Layer_11">
</g>
<g id="Price_1">
</g>
<g id="Price_2">
</g>
<g id="Price_3">
</g>
<g id="Icon_Star">
</g>
<g id="Icon_Search">
	<g>
		<path d="M8.22,4c2.88,0,5.22,2.37,5.22,5.28s-2.34,5.28-5.22,5.28S3,12.19,3,9.28S5.34,4,8.22,4 M8.22,3C4.79,3,2,5.81,2,9.28
			s2.79,6.28,6.22,6.28c3.44,0,6.22-2.81,6.22-6.28S11.66,3,8.22,3L8.22,3z"/>
	</g>
	<polyline points="13.39,13.47 18,18.19 17.16,19 12.54,14.35 13.31,13.58 	"/>
	<polygon points="12.85,13.47 13.14,13.74 12.72,14.17 12.43,13.91 	"/>
</g>
</svg>
