<?xml version="1.0" encoding="utf-8"?>
<!-- Generator: Adobe Illustrator 26.0.1, SVG Export Plug-In . SVG Version: 6.00 Build 0)  -->
<svg version="1.1" xmlns="http://www.w3.org/2000/svg" xmlns:xlink="http://www.w3.org/1999/xlink" x="0px" y="0px"
	 viewBox="0 0 88 88" style="enable-background:new 0 0 88 88;" xml:space="preserve">
<style type="text/css">
	.st0{fill:#00BE5F;}
	.st1{fill:#870AA0;}
	.st2{fill:#2819FF;}
	.st3{fill:#FF5F0A;}
	.st4{fill:#FFCD32;}
	.st5{fill:#23C3FF;}
	.st6{fill:#FA1996;}
	.st7{fill:#00F0AF;}
	.st8{fill:none;}
	.st9{fill:#FFFFFF;}
	.st10{clip-path:url(#SVGID_00000019679474096633889550000006236082203368707466_);}
	.st11{fill:none;stroke:#FFFFFF;stroke-width:39;stroke-miterlimit:10;}
</style>
<g id="Lager_1">
</g>
<g id="Exempel">
</g>
<g id="Titel">
</g>
<g id="Lager_4">
</g>
<g id="Layer_5">
</g>
<g id="Layer_6">
	<g>
		<path class="st8" d="M23.38,20.32C16.43,26.01,12,34.51,12,44c0,17.09,14.36,31,32,31V40.86L23.38,20.32z"/>
		<path class="st8" d="M44,75c9.48,0,18-4.01,23.86-10.37L44,40.86V75z"/>
		<path class="st8" d="M44,13v27.86l23.86,23.77C72.92,59.14,76,51.91,76,44C76,26.91,61.64,13,44,13z"/>
		<path class="st8" d="M44,13c-7.85,0-15.05,2.76-20.62,7.32L44,40.86V13z"/>
		<path class="st0" d="M44,13V3C33.36,3,23.66,6.87,16.26,13.23l7.12,7.09C28.95,15.76,36.15,13,44,13z"/>
		<path class="st5" d="M44,3v10c17.64,0,32,13.91,32,31c0,7.91-3.08,15.14-8.14,20.63C62,70.99,53.48,75,44,75
			c-17.64,0-32-13.91-32-31c0-9.49,4.43-17.99,11.38-23.68l-7.12-7.09C7.52,20.74,2,31.74,2,44c0,22.64,18.8,41,42,41
			c12.26,0,23.28-5.13,30.96-13.3C81.82,64.4,86,54.68,86,44C86,21.36,67.2,3,44,3z"/>
	</g>
</g>
</svg>
